<svg xmlns="http://www.w3.org/2000/svg" width="95.37109375px" height="75.15625px" viewBox="-18.14453125 -54.66796875 95.37109375 75.15625"><path d="M14.01 0.49L14.01 0.49Q8.18 0.49 5.02-2.73Q1.86-5.96 1.86-11.74L1.86-11.74L7.91-11.74Q7.91-8.52 9.53-6.74Q11.16-4.96 14.14-4.96L14.14-4.96Q17.09-4.96 18.69-6.73Q20.29-8.50 20.29-11.74L20.29-11.74L20.29-34.67L26.17-34.67L26.17-11.74Q26.17-5.93 22.96-2.72Q19.75 0.49 14.01 0.49ZM23.34-29.25L11.96-29.25L11.96-34.67L23.34-34.67L23.34-29.25ZM46.48 0L38.50 0L38.50-5.42L45.07-5.42Q47.95-5.42 49.54-6.75Q51.12-8.08 51.12-10.50L51.12-10.50Q51.12-12.94 49.46-14.27Q47.80-15.60 44.73-15.60L44.73-15.60L38.60-15.60L38.01-18.04L47.17-18.04Q51.98-18.04 54.60-15.82Q57.23-13.60 57.23-9.52L57.23-9.52Q57.23-4.98 54.43-2.49Q51.64 0 46.48 0L46.48 0ZM38.84 0L32.96 0L32.96-34.67L38.84-34.67L38.84 0ZM46.61-17.04L36.84-17.04L36.84-19.43L46.61-19.43L46.61-17.04ZM45.26-18.58L38.50-18.58L38.50-21.02L43.60-21.02Q46.07-21.02 47.38-22.11Q48.68-23.19 48.68-25.27L48.68-25.27Q48.68-27.22 47.30-28.23Q45.92-29.25 43.26-29.25L43.26-29.25L38.60-29.25L38.01-34.67L43.51-34.67Q48.90-34.67 51.84-32.41Q54.79-30.15 54.79-26.00L54.79-26.00Q54.79-22.44 52.31-20.51Q49.83-18.58 45.26-18.58L45.26-18.58Z" fill="#7bf1a8"/></svg>